HIERARCHY
ROOT Hips
{
	OFFSET 0.000000 35.082581 0.000000
	CHANNELS 6 Xposition Yposition Zposition Xrotation Yrotation Zrotation 
	JOINT Spine
	{
		OFFSET 0.000000 6.876099 0.125700
		CHANNELS 3 Xrotation Yrotation Zrotation
		JOINT Spine1
		{
			OFFSET 0.000000 5.730043 0.104720
			CHANNELS 3 Xrotation Yrotation Zrotation
			JOINT Spine1_split
			{
				OFFSET 0.000000 5.730043 0.104720
				CHANNELS 3 Xrotation Yrotation Zrotation
				JOINT Spine2
				{
					OFFSET 0.000000 5.730043 0.104720
					CHANNELS 3 Xrotation Yrotation Zrotation
					JOINT Neck
					{
						OFFSET 0.000000 10.314075 0.188496
						CHANNELS 3 Xrotation Yrotation Zrotation
						JOINT Head
						{
							OFFSET 0.000000 7.643700 -2.377400
							CHANNELS 3 Xrotation Yrotation Zrotation
							JOINT HeadTop_End
							{
								OFFSET 0.000000 43.788605 -13.619600
								CHANNELS 3 Xrotation Yrotation Zrotation
								End Site
								{
									OFFSET 0.000000 0.000000 0.000000
								}
							}
						}
					}
					JOINT LeftShoulder
					{
						OFFSET 2.196100 4.412489 0.087492
						CHANNELS 3 Xrotation Yrotation Zrotation
						JOINT LeftShoulder_split
						{
							OFFSET 2.196100 4.412489 0.087492
							CHANNELS 3 Xrotation Yrotation Zrotation
							JOINT LeftArm
							{
								OFFSET 8.771219 -2.981674 -0.026999
								CHANNELS 3 Xrotation Yrotation Zrotation
								JOINT LeftForeArm
								{
									OFFSET 8.512804 0.000000 -0.000000
									CHANNELS 3 Xrotation Yrotation Zrotation
									JOINT LeftHand
									{
										OFFSET 18.484802 0.000000 -0.000000
										CHANNELS 3 Xrotation Yrotation Zrotation
										JOINT LeftHandThumb1
										{
											OFFSET 2.499420 -1.158070 2.653252
											CHANNELS 3 Xrotation Yrotation Zrotation
											JOINT LeftHandThumb2
											{
												OFFSET 2.370079 -1.368366 1.368366
												CHANNELS 3 Xrotation Yrotation Zrotation
												JOINT LeftHandThumb3
												{
													OFFSET 2.676727 -1.545410 1.545409
													CHANNELS 3 Xrotation Yrotation Zrotation
													JOINT LeftHandThumb4
													{
														OFFSET 1.692226 -0.977005 0.977007
														CHANNELS 3 Xrotation Yrotation Zrotation
														End Site
														{
															OFFSET 0.000000 0.000000 0.000000
														}
													}
												}
											}
										}
										JOINT LeftHandIndex1
										{
											OFFSET 7.924831 -0.457527 2.345128
											CHANNELS 3 Xrotation Yrotation Zrotation
											JOINT LeftHandIndex2
											{
												OFFSET 3.643303 0.000000 0.000000
												CHANNELS 3 Xrotation Yrotation Zrotation
												JOINT LeftHandIndex3
												{
													OFFSET 3.810799 0.000000 0.000000
													CHANNELS 3 Xrotation Yrotation Zrotation
													JOINT LeftHandIndex4
													{
														OFFSET 2.403702 0.000000 0.000000
														CHANNELS 3 Xrotation Yrotation Zrotation
														End Site
														{
															OFFSET 0.000000 0.000000 0.000000
														}
													}
												}
											}
										}
										JOINT LeftHandMiddle1
										{
											OFFSET 8.563995 0.000000 -0.000000
											CHANNELS 3 Xrotation Yrotation Zrotation
											JOINT LeftHandMiddle2
											{
												OFFSET 3.861618 0.000000 0.000000
												CHANNELS 3 Xrotation Yrotation Zrotation
												JOINT LeftHandMiddle3
												{
													OFFSET 3.701603 0.000000 0.000000
													CHANNELS 3 Xrotation Yrotation Zrotation
													JOINT LeftHandMiddle4
													{
														OFFSET 2.322544 0.000000 0.000000
														CHANNELS 3 Xrotation Yrotation Zrotation
														End Site
														{
															OFFSET 0.000000 0.000000 0.000000
														}
													}
												}
											}
										}
										JOINT LeftHandRing1
										{
											OFFSET 8.426460 -0.424637 -3.286992
											CHANNELS 3 Xrotation Yrotation Zrotation
											JOINT LeftHandRing2
											{
												OFFSET 3.126408 0.000000 0.000000
												CHANNELS 3 Xrotation Yrotation Zrotation
												JOINT LeftHandRing3
												{
													OFFSET 3.085026 0.000000 0.000000
													CHANNELS 3 Xrotation Yrotation Zrotation
													JOINT LeftHandRing4
													{
														OFFSET 1.644005 0.000000 0.000000
														CHANNELS 3 Xrotation Yrotation Zrotation
														End Site
														{
															OFFSET 0.000000 0.000000 0.000000
														}
													}
												}
											}
										}
									}
								}
							}
						}
					}
					JOINT RightShoulder
					{
						OFFSET -2.196100 4.412496 0.070690
						CHANNELS 3 Xrotation Yrotation Zrotation
						JOINT RightShoulder_split
						{
							OFFSET -2.196100 4.412496 0.070690
							CHANNELS 3 Xrotation Yrotation Zrotation
							JOINT RightArm
							{
								OFFSET -8.771282 -2.981682 -0.094208
								CHANNELS 3 Xrotation Yrotation Zrotation
								JOINT RightForeArm
								{
									OFFSET -8.494598 0.000000 0.000000
									CHANNELS 3 Xrotation Yrotation Zrotation
									JOINT RightHand
									{
										OFFSET -18.483803 0.000000 0.000001
										CHANNELS 3 Xrotation Yrotation Zrotation
										JOINT RightHandThumb1
										{
											OFFSET -2.527351 -1.008072 2.575253
											CHANNELS 3 Xrotation Yrotation Zrotation
											JOINT RightHandThumb2
											{
												OFFSET -2.321518 -1.340328 1.340329
												CHANNELS 3 Xrotation Yrotation Zrotation
												JOINT RightHandThumb3
												{
													OFFSET -2.657753 -1.534454 1.534455
													CHANNELS 3 Xrotation Yrotation Zrotation
													JOINT RightHandThumb4
													{
														OFFSET -1.807510 -1.043568 1.043567
														CHANNELS 3 Xrotation Yrotation Zrotation
														End Site
														{
															OFFSET 0.000000 0.000000 0.000000
														}
													}
												}
											}
										}
										JOINT RightHandIndex1
										{
											OFFSET -8.811420 0.015533 2.887987
											CHANNELS 3 Xrotation Yrotation Zrotation
											JOINT RightHandIndex2
											{
												OFFSET -3.537502 0.000000 0.000000
												CHANNELS 3 Xrotation Yrotation Zrotation
												JOINT RightHandIndex3
												{
													OFFSET -3.356201 0.000000 0.000000
													CHANNELS 3 Xrotation Yrotation Zrotation
													JOINT RightHandIndex4
													{
														OFFSET -1.933098 0.000000 0.000000
														CHANNELS 3 Xrotation Yrotation Zrotation
														End Site
														{
															OFFSET 0.000000 0.000000 0.000000
														}
													}
												}
											}
										}
										JOINT RightHandMiddle1
										{
											OFFSET -8.178135 0.000000 0.000000
											CHANNELS 3 Xrotation Yrotation Zrotation
											JOINT RightHandMiddle2
											{
												OFFSET -3.901302 0.000000 0.000000
												CHANNELS 3 Xrotation Yrotation Zrotation
												JOINT RightHandMiddle3
												{
													OFFSET -3.909599 0.000000 0.000000
													CHANNELS 3 Xrotation Yrotation Zrotation
													JOINT RightHandMiddle4
													{
														OFFSET -2.376003 0.000000 0.000000
														CHANNELS 3 Xrotation Yrotation Zrotation
														End Site
														{
															OFFSET 0.000000 0.000000 0.000000
														}
													}
												}
											}
										}
										JOINT RightHandRing1
										{
											OFFSET -7.559013 0.014137 -2.865403
											CHANNELS 3 Xrotation Yrotation Zrotation
											JOINT RightHandRing2
											{
												OFFSET -3.449306 0.000000 0.000000
												CHANNELS 3 Xrotation Yrotation Zrotation
												JOINT RightHandRing3
												{
													OFFSET -3.362106 0.000000 0.000000
													CHANNELS 3 Xrotation Yrotation Zrotation
													JOINT RightHandRing4
													{
														OFFSET -2.076401 0.000000 0.000000
														CHANNELS 3 Xrotation Yrotation Zrotation
														End Site
														{
															OFFSET 0.000000 0.000000 0.000000
														}
													}
												}
											}
										}
									}
								}
							}
						}
					}
				}
			}
		}
	}
	JOINT LeftUpLeg
	{
		OFFSET 10.205400 -3.823500 0.155100
		CHANNELS 3 Xrotation Yrotation Zrotation
		JOINT LeftLeg
		{
			OFFSET 0.708757 -12.982077 0.567790
			CHANNELS 3 Xrotation Yrotation Zrotation
			JOINT LeftFoot
			{
				OFFSET -0.708756 -10.717838 -2.184338
				CHANNELS 3 Xrotation Yrotation Zrotation
				JOINT LeftToeBase
				{
					OFFSET 0.108149 -7.191104 7.560241
					CHANNELS 3 Xrotation Yrotation Zrotation
					JOINT LeftToe_End
					{
						OFFSET 0.070230 0.081724 4.490308
						CHANNELS 3 Xrotation Yrotation Zrotation
						End Site
						{
							OFFSET 0.000000 0.000000 0.000000
						}
					}
				}
			}
		}
	}
	JOINT RightUpLeg
	{
		OFFSET -10.205400 -3.823500 0.005500
		CHANNELS 3 Xrotation Yrotation Zrotation
		JOINT RightLeg
		{
			OFFSET -0.708756 -12.982134 0.610632
			CHANNELS 3 Xrotation Yrotation Zrotation
			JOINT RightFoot
			{
				OFFSET 0.708754 -10.717769 -1.945823
				CHANNELS 3 Xrotation Yrotation Zrotation
				JOINT RightToeBase
				{
					OFFSET -0.108140 -7.191069 7.372968
					CHANNELS 3 Xrotation Yrotation Zrotation
					JOINT RightToe_End
					{
						OFFSET -0.070227 0.081735 4.479403
						CHANNELS 3 Xrotation Yrotation Zrotation
						End Site
						{
							OFFSET 0.000000 0.000000 0.000000
						}
					}
				}
			}
		}
	}
}
MOTION
Frames: 5
Frame Time: 0.016667
-0.301786 26.564682 0.292939 11.655826 -49.360708 11.305327 10.974542 2.699012 -2.069923 6.100694 5.566535 -4.284688 0.000000 0.000000 0.000000 -5.786911 6.328138 -3.046183 2.318312 9.363380 -0.265397 -4.146498 23.161918 -3.523233 -0.000001 0.000000 0.000000 -1.875345 -16.181751 -2.870485 0.000000 0.000000 0.000000 -10.644678 2.164748 -45.510602 -22.862380 -25.786288 -15.871739 2.491045 -2.511850 6.860495 18.457948 -9.513822 13.216605 -1.150196 11.255349 -8.400839 5.706549 8.483108 -0.820720 -0.000001 -0.000000 -0.000004 -1.232814 -5.771935 -0.192339 0.133934 -0.197640 -4.602137 0.055731 -0.448187 -7.568175 0.000002 -0.000001 -0.000002 1.884724 4.663372 -4.597408 0.476685 -1.009839 -12.986420 0.628499 -1.346609 -16.554036 -0.000001 -0.000001 0.000001 3.024586 7.938949 -14.103486 -0.708004 -0.566216 -18.895730 -0.726396 -0.705040 -22.058432 0.000003 0.000000 -0.000000 -5.074600 24.343744 1.482676 0.000000 0.000000 0.000000 6.642359 -34.733739 57.610426 -21.032005 44.833816 19.961679 -0.087204 35.608498 7.474254 55.149526 18.649551 -29.698287 -0.442546 -14.180563 7.313157 21.666996 -29.244486 9.142352 0.000001 -0.000002 -0.000000 5.673400 7.585020 36.844144 1.050486 3.824521 68.900244 0.499577 3.026039 62.196461 0.000002 0.000001 -0.000000 -0.125717 1.886083 45.000783 -1.168977 3.204683 68.417650 -0.936400 1.813603 41.107569 -0.000000 0.000001 -0.000001 -5.311993 1.216625 58.508794 -0.745199 1.667570 48.011292 -0.816440 1.840674 53.666538 0.000002 -0.000004 -0.000002 -69.352648 16.208370 51.972125 53.929463 -25.144879 2.808937 2.213494 2.700416 -19.144223 -0.941245 -6.111069 0.982356 0.000000 0.000001 0.000000 -27.355015 4.522924 -38.849115 61.087757 11.597562 -5.601588 -37.636900 -11.607146 32.641884 0.528338 2.970117 1.471441 0.000000 0.000003 -0.000000 
-0.236587 26.546597 0.333353 11.182470 -50.995664 10.944226 10.992687 2.725915 -2.059146 6.138155 5.594446 -4.285144 0.000000 0.000000 0.000000 -5.748710 6.468361 -2.981395 2.489928 9.336458 -0.252155 -3.932298 23.122429 -3.588222 0.000000 0.000000 -0.000000 -1.831983 -15.691465 -2.734852 0.000000 0.000000 0.000000 -10.284177 1.988976 -45.432834 -22.867624 -26.152788 -16.049763 2.735575 -2.483701 6.839553 18.499205 -9.524866 13.108596 -1.077107 11.351613 -8.411976 5.800707 8.647350 -0.822990 -0.000005 0.000001 -0.000002 -1.131502 -5.650998 -0.728758 0.094701 -0.195213 -5.161574 0.015992 -0.444476 -8.127782 0.000002 0.000001 0.000000 1.871900 4.626705 -5.322332 0.428613 -1.020171 -13.711995 0.578723 -1.355358 -17.279935 0.000000 -0.000003 -0.000002 2.961939 7.871835 -14.814774 -0.750699 -0.567340 -19.622490 -0.769365 -0.704599 -22.785363 -0.000002 0.000002 0.000003 -5.284773 25.012619 1.987630 0.000000 0.000000 0.000000 5.891123 -33.544172 56.610373 -21.351943 45.089849 20.683957 2.377831 34.175978 4.612037 55.149526 18.649551 -29.698291 -0.442545 -14.180560 7.313160 21.666994 -29.244486 9.142349 0.000003 -0.000000 0.000001 5.673398 7.585022 36.844137 1.050485 3.824521 68.900244 0.499578 3.026040 62.196461 0.000000 -0.000001 0.000001 -0.125723 1.886090 45.000776 -1.168977 3.204687 68.417650 -0.936401 1.813603 41.107569 -0.000000 0.000001 0.000001 -5.311998 1.216631 58.508794 -0.745200 1.667571 48.011295 -0.816438 1.840675 53.666535 0.000000 0.000000 0.000001 -67.437606 15.930549 52.915521 54.485942 -25.570633 2.816252 0.547897 3.355218 -20.088874 -0.754532 -5.856653 0.939634 -0.000000 0.000001 -0.000000 -28.348470 5.460096 -38.670366 61.175593 12.258696 -5.632816 -36.752244 -10.652287 32.563046 0.489605 2.972125 1.458246 0.000000 0.000003 0.000000 
-0.236569 26.566715 0.319263 10.645219 -52.552807 10.563794 11.044054 2.749341 -2.032710 6.244014 5.671765 -4.285778 0.000000 0.000000 0.000000 -5.640076 6.608170 -2.917739 2.645278 9.260215 -0.213893 -3.676955 23.009495 -3.772376 0.000000 -0.000000 -0.000000 -1.772857 -15.071277 -2.573262 0.000000 0.000000 0.000000 -9.648148 1.878012 -45.209295 -22.751843 -26.556768 -16.251523 3.425986 -2.405853 6.778305 18.614338 -9.555907 12.806407 -0.869301 11.618019 -8.438095 6.062217 9.107775 -0.832056 -0.000002 0.000003 0.000001 -0.835822 -5.325757 -2.231423 -0.013382 -0.184475 -6.726215 -0.093409 -0.430278 -9.692740 0.000003 0.000002 -0.000002 1.834798 4.529832 -7.349828 0.295686 -1.043537 -15.741542 0.441527 -1.374338 -19.309988 0.000002 0.000001 0.000002 2.782682 7.699107 -16.805749 -0.868376 -0.565359 -21.655169 -0.887356 -0.698293 -24.818245 -0.000004 -0.000002 -0.000001 -5.414764 24.900599 2.343719 0.000000 0.000000 0.000000 4.830022 -31.450446 55.681659 -21.606718 44.967411 21.111012 4.968130 32.755999 1.699195 55.149526 18.649543 -29.698298 -0.442546 -14.180563 7.313160 21.666989 -29.244479 9.142354 -0.000000 -0.000000 -0.000000 5.673401 7.585028 36.844137 1.050486 3.824520 68.900237 0.499578 3.026040 62.196461 -0.000003 -0.000001 0.000001 -0.125720 1.886092 45.000780 -1.168977 3.204681 68.417650 -0.936408 1.813604 41.107565 0.000001 -0.000001 -0.000000 -5.311996 1.216635 58.508794 -0.745200 1.667569 48.011288 -0.816444 1.840673 53.666545 0.000000 0.000001 -0.000001 -65.246106 15.410273 53.111104 56.259046 -25.232997 2.980476 -1.790647 4.681808 -19.482022 -0.637888 -5.189283 -0.062671 0.000000 0.000001 0.000000 -29.000720 6.537517 -38.054829 61.376018 12.499085 -5.785165 -36.121397 -10.000327 32.469316 0.378335 2.978220 1.420439 0.000000 0.000001 0.000000 
-0.262686 26.588985 0.306946 10.051363 -54.059667 10.153437 11.124009 2.775225 -1.988904 6.408568 5.788707 -4.285503 0.000000 0.000000 0.000000 -5.470575 6.747024 -2.854224 2.788241 9.140419 -0.154532 -3.388280 22.831779 -4.057900 0.000001 0.000000 0.000000 -1.680936 -14.154114 -2.352852 0.000000 0.000000 0.000000 -8.774242 1.650395 -44.932109 -22.530356 -26.999731 -16.467765 4.497321 -2.288676 6.678760 18.789958 -9.604265 12.342671 -0.550082 12.026271 -8.480237 6.464172 9.813377 -0.850623 -0.000001 -0.000001 -0.000007 -0.348422 -4.866013 -4.542060 -0.174171 -0.156907 -9.125356 -0.255519 -0.397712 -12.092328 0.000000 0.000001 -0.000001 1.775592 4.397488 -10.459155 0.097248 -1.063967 -18.853819 0.237223 -1.388250 -22.423105 -0.000001 -0.000001 0.000000 2.498686 7.477373 -19.862556 -1.042450 -0.547705 -24.771942 -1.061566 -0.674326 -27.935467 0.000004 0.000002 0.000002 -5.461390 25.266482 2.495342 0.000000 0.000000 0.000000 3.915313 -29.781530 55.120013 -21.873975 44.541986 21.371845 7.589056 31.575691 -1.256839 55.149533 18.649541 -29.698287 -0.442545 -14.180565 7.313158 21.666996 -29.244486 9.142349 -0.000000 -0.000000 0.000001 5.673401 7.585017 36.844137 1.050483 3.824520 68.900237 0.499583 3.026040 62.196461 -0.000001 -0.000002 -0.000002 -0.125722 1.886087 45.000776 -1.168977 3.204684 68.417650 -0.936405 1.813601 41.107569 0.000002 -0.000000 0.000001 -5.311996 1.216627 58.508787 -0.745202 1.667567 48.011288 -0.816438 1.840675 53.666535 -0.000000 0.000002 0.000000 -63.013741 14.425564 52.749681 59.095937 -24.209107 3.296754 -4.358155 6.305594 -18.473649 -0.127151 -4.220713 -0.546827 0.000000 0.000002 0.000000 -29.307918 7.790248 -37.255021 61.574661 12.474003 -6.013523 -35.650145 -9.654202 32.503460 0.202339 2.987590 1.360489 0.000000 -0.000001 -0.000000 
-0.271335 26.584354 0.318631 9.407295 -55.544444 9.698273 11.227478 2.808657 -1.922278 6.622065 5.935562 -4.283196 0.000000 0.000000 0.000000 -5.249789 6.884295 -2.789883 2.921514 8.983522 -0.077019 -3.073445 22.597537 -4.427861 0.000000 -0.000001 0.000000 -1.628007 -13.599106 -2.198471 0.000000 0.000000 0.000000 -7.656124 1.924364 -44.436224 -22.218810 -27.483349 -16.689603 5.884935 -2.144376 6.542361 19.012579 -9.667214 11.749953 -0.141514 12.547220 -8.537753 6.979163 10.713415 -0.882379 -0.000000 0.000001 -0.000000 0.329240 -4.351198 -7.503750 -0.369300 -0.103137 -12.188111 -0.451612 -0.337882 -15.155727 -0.000001 -0.000000 0.000001 1.698472 4.256731 -14.429782 -0.144858 -1.063912 -22.827534 -0.010692 -1.380495 -26.397879 0.000002 -0.000001 -0.000001 2.127010 7.270691 -23.772286 -1.251832 -0.500834 -28.751312 -1.270277 -0.619949 -31.915268 0.000001 -0.000000 -0.000001 -5.521595 25.685628 2.682250 0.000000 0.000000 0.000000 3.144991 -28.050419 54.521193 -22.183273 44.067930 21.624428 10.077609 30.371413 -4.358313 55.149529 18.649548 -29.698287 -0.442546 -14.180561 7.313157 21.666992 -29.244486 9.142352 0.000000 -0.000002 0.000003 5.673400 7.585020 36.844137 1.050485 3.824523 68.900244 0.499578 3.026038 62.196461 -0.000002 -0.000001 0.000001 -0.125720 1.886086 45.000780 -1.168977 3.204682 68.417657 -0.936408 1.813603 41.107569 -0.000001 0.000000 -0.000000 -5.311996 1.216629 58.508787 -0.745200 1.667570 48.011288 -0.816436 1.840674 53.666538 -0.000002 0.000001 -0.000001 -60.777475 13.132477 52.704605 62.167562 -23.690313 3.549347 -7.201634 8.128767 -19.788969 1.969193 -3.432127 1.744371 0.000000 0.000001 0.000000 -29.382466 9.287411 -36.421567 61.755832 12.289278 -6.289405 -35.225164 -9.580358 32.763249 -0.030925 3.000279 1.281195 -0.000000 -0.000000 0.000000 
